<svg version="1.2" xmlns="http://www.w3.org/2000/svg" viewBox="0 0 315 315" width="315" height="315">
	<title>Place Your Logo Here (Double Click to Edit)1</title>
	<style>
		.s0 { fill: #ffffff } 
	</style>
	<path id="Logo" fill-rule="evenodd" class="s0" d="m68.4 112.2c-4.8-5.9-3.1-15.6-2.8-16.6q0-0.1 0-0.1c3.8-17.4 13.9-33.3 28.6-44.7 14.8-11.5 33.5-17.8 52.8-17.8h20c19.3 0 38.1 6.4 53 17.9 14.6 11.5 24.8 27.4 28.5 44.9q0 0.1 0 0.1c1.1 6.5 0.8 11.5-1.1 15-1.6 2.9-4.1 4.7-7.3 5.3q-0.3 0.1-0.5 0.1h-19.5c-1.6 0-2.9-1.3-2.9-2.9 0-1.6 1.3-2.9 2.9-2.9h19.1c4.7-1.1 4.6-7.9 3.6-13.5-7.2-33.7-39-58.2-75.8-58.2h-20c-36.6 0-68.5 24.3-75.8 57.9-0.4 2.2-0.9 8.6 1.7 11.8 1.1 1.4 2.8 2 5.1 2h132.8c1.6 0 2.9 1.3 2.9 2.9 0 1.6-1.3 2.9-2.9 2.9h-132.8c-5.1 0-8-2.3-9.6-4.1zm181.3 77.9q0 0.1 0 0.3 0 0.2 0 0.4v3.9q0 0.2 0 0.4 0 0.2 0 0.3v4.9c0 6-4.8 10.9-10.6 10.9h-140.3c-1.6 0-2.9-1.3-2.9-2.9 0-1.6 1.3-2.9 2.9-2.9h140.3c2.7 0 4.8-2.3 4.8-5.1v-5.1q0-0.1 0-0.2v-0.3-4.2q0-0.1 0-0.2v-0.3-0.6h-79l-5.8 7q-0.1 0.1-0.2 0.2 0 0-0.1 0-0.1 0.1-0.2 0.2 0 0 0 0-0.3 0.3-0.8 0.4 0 0 0 0.1-0.2 0-0.3 0 0 0-0.1 0-0.1 0.1-0.2 0.1-0.1 0-0.1 0-0.1 0-0.2 0 0 0 0 0c-0.7 0-1.3-0.2-1.8-0.6q-0.3-0.2-0.5-0.5l-5.7-6.9h-78.8v0.7q0 0.1 0 0.2 0 0.1 0 0.2 0 0.1 0 0.2v0.1 4q0 0.1 0 0.2 0 0.1 0 0.2 0 0.1 0 0.2v0.1 4.8c0 2.8 2.1 5.1 4.8 5.1h14.6c1.6 0 2.9 1.3 2.9 2.9 0 1.6-1.3 2.9-2.9 2.9h-14.6c-5.8 0-10.6-4.9-10.6-10.9v-4.9q0-0.1 0-0.3 0-0.2 0-0.4v-3.9q0-0.2 0-0.4 0-0.2 0-0.3v-3.6c0-1.6 1.3-2.9 2.9-2.9h5.5c-2.2-2.7-3.6-6.3-3.6-10.2v-2.2c0-3.9 1.4-7.5 3.6-10.2h-0.7c-1.6 0-2.9-1.3-2.9-2.9v-16.5c0-1.6 1.3-2.9 2.9-2.9h170c1.6 0 2.9 1.3 2.9 2.9v16.5c0 1.6-1.3 2.9-2.9 2.9h-0.7c2.2 2.7 3.6 6.3 3.6 10.2v2.2c0 3.9-1.4 7.5-3.6 10.2h5.5c1.6 0 2.9 1.3 2.9 2.9zm-105.5-6.4l-11.1-13.5-7.6-9.2h-7.8v6.8c0 1.6-1.3 2.9-2.9 2.9-1.6 0-2.9-1.3-2.9-2.9v-6.8h-12.3v6.8c0 1.6-1.3 2.9-2.9 2.9-1.6 0-2.9-1.3-2.9-2.9v-6.8h-9.1c-5.4 0-9.8 4.6-9.8 10.3v2.2c0 5.6 4.4 10.2 9.8 10.2zm32.7-17.6l4.3-5.1h-48.2l0.6 0.7 23.3 28.3 4.4-5.3zm62.2 7.4v-2.2c0-5.6-4.4-10.2-9.8-10.2h-10.1v6.8c0 1.6-1.2 2.9-2.8 2.9-1.6 0-2.9-1.3-2.9-2.9v-6.8h-12.4v6.8c0 1.6-1.3 2.9-2.9 2.9-1.6 0-2.9-1.3-2.9-2.9v-6.8h-6.6l-0.9 1.1-18 21.5h59.5c5.4 0 9.8-4.6 9.8-10.2zm0-18.2v-10.7h-164.2v10.7zm6-19.9c-0.6 0.7-1.4 1-2.3 1-0.6 0-1.3-0.2-1.8-0.6l-12.4-10.2-12.4 10.1c-0.5 0.5-1.2 0.7-1.8 0.7-0.7 0-1.3-0.2-1.9-0.7l-12.4-10.2-12.4 10.2c-0.5 0.5-1.1 0.7-1.8 0.7-0.7 0-1.3-0.2-1.8-0.7l-12.5-10.2-12.4 10.2c-0.6 0.5-1.2 0.7-1.9 0.7-0.6 0-1.3-0.2-1.8-0.7l-12.4-10.2-12.4 10.2c-0.5 0.5-1.2 0.7-1.8 0.7-0.7 0-1.3-0.2-1.9-0.7l-12.4-10.2-12.4 10.2c-0.5 0.5-1.1 0.7-1.8 0.7-0.6 0-1.3-0.2-1.8-0.7l-0.6-0.4q-0.1-0.1-0.1-0.1l-12.4-10.2-12.4 10.1c-1.3 1.1-3.1 0.9-4.1-0.3-1-1.3-0.8-3.1 0.4-4.1l14.2-11.7c1.1-0.9 2.7-0.9 3.7 0l0.5 0.4q0.1 0 0.2 0.1l12.4 10.2 12.4-10.2q0 0 0 0 0.1 0 0.2-0.1 0 0 0 0 0.1-0.1 0.2-0.2 0.1 0 0.1 0 0.1 0 0.2-0.1 0 0 0 0 0.1 0 0.2 0 0.3-0.2 0.7-0.2 0.7-0.1 1.3 0.2 0 0 0 0 0.1 0 0.1 0.1 0.1 0 0.2 0 0 0 0.1 0.1 0 0 0.1 0.1 0.1 0 0.1 0 0.1 0.1 0.2 0.1 0 0 0 0l12.4 10.2 12.4-10.1q0-0.1 0-0.1 0.1 0 0.2-0.1 0 0 0 0 0.1-0.1 0.2-0.2 0 0 0 0 0.2 0 0.3-0.1 0 0 0 0 0.1 0 0.2-0.1 0 0 0.1 0 0 0 0.1 0 0.2-0.1 0.4-0.1 0.7-0.1 1.3 0.2 0.1 0 0.1 0 0 0 0.1 0 0.1 0.1 0.2 0.1 0 0 0 0.1 0.1 0 0.2 0.1 0 0 0 0 0.1 0.1 0.2 0.1 0 0 0 0.1l12.4 10.1 12.4-10.1c0.6-0.5 1.3-0.7 1.9-0.7 0.7 0 1.4 0.2 1.9 0.7l12.4 10.2 12.4-10.2q0 0 0 0 0.1-0.1 0.2-0.2 0 0 0 0 0.1-0.1 0.2-0.1 0.1 0 0.1-0.1 0.1 0 0.2 0 0-0.1 0-0.1 0.1 0 0.1 0 0.6-0.2 1.1-0.2 0.5 0 0.9 0.2 0.1 0 0.1 0 0.1 0 0.1 0.1 0.1 0 0.2 0 0 0.1 0 0.1 0.1 0 0.2 0.1 0.1 0 0.1 0 0.1 0.1 0.2 0.2 0 0 0 0l12.4 10.2 12.4-10.2q0 0 0 0 0.1-0.1 0.2-0.2 0 0 0 0 0.1-0.1 0.2-0.1 0 0 0.1-0.1 0 0 0.1 0 0.1-0.1 0.1-0.1 0 0 0.1 0 0.4-0.2 0.9-0.2 0.6 0 1.2 0.2 0 0 0 0 0.1 0.1 0.1 0.1 0.1 0 0.2 0 0 0.1 0 0.1 0.1 0 0.2 0.1 0 0 0.1 0 0 0.1 0.1 0.2 0 0 0 0l14.3 11.7c1.2 1 1.4 2.8 0.4 4.1zm-202.1 109.2l-11.9 22.9v12.3h-7.1v-12.3l-11.9-22.9h7.9l7.6 16.1 7.5-16.1zm11.4 33.2q-4.2-2.3-6.6-6.4-2.4-4.1-2.4-9.3 0-5.2 2.4-9.3 2.4-4.1 6.6-6.4 4.1-2.3 9-2.3 5 0 9.1 2.3 4.2 2.3 6.6 6.4 2.4 4.1 2.4 9.3 0 5.2-2.4 9.3-2.4 4.1-6.6 6.4-4.1 2.3-9.1 2.3-4.9 0-9-2.3zm14.6-5.4q2.5-1.5 3.8-4.1 1.4-2.7 1.4-6.2 0-3.6-1.4-6.2-1.3-2.6-3.8-4.1-2.4-1.4-5.6-1.4-3.1 0-5.6 1.4-2.4 1.5-3.8 4.1-1.4 2.6-1.4 6.2 0 3.5 1.4 6.2 1.4 2.6 3.8 4.1 2.5 1.4 5.6 1.4 3.2 0 5.6-1.4zm24.7-27.8v21.8q0 3.5 1.8 5.4 1.9 1.9 5.3 1.9 3.4 0 5.3-1.9 1.8-1.9 1.8-5.4v-21.8h7.2v21.7q0 4.5-2 7.6-1.9 3.1-5.2 4.6-3.2 1.6-7.2 1.6-4 0-7.2-1.6-3.2-1.5-5-4.6-1.9-3.1-1.9-7.6v-21.7zm46.4 35.2l-7.8-13.7h-3.3v13.7h-7.1v-35.2h13.2q4.1 0 7 1.4 2.9 1.5 4.3 3.9 1.4 2.5 1.4 5.5 0 3.5-2 6.2-2 2.8-6 3.9l8.4 14.3zm-11.1-19h5.9q2.9 0 4.3-1.4 1.4-1.4 1.4-3.9 0-2.4-1.4-3.7-1.4-1.4-4.3-1.4h-5.9zm44.4 13.4h11.6v5.6h-18.7v-35.1h7.1zm23.3 3.6q-4.1-2.3-6.5-6.4-2.4-4.1-2.4-9.3 0-5.2 2.4-9.3 2.4-4.1 6.5-6.4 4.2-2.3 9.1-2.3 5 0 9.1 2.3 4.1 2.3 6.5 6.4 2.4 4.1 2.4 9.3 0 5.2-2.4 9.3-2.4 4.1-6.5 6.4-4.1 2.3-9.1 2.3-4.9 0-9.1-2.3zm14.7-5.4q2.4-1.5 3.8-4.1 1.4-2.7 1.4-6.2 0-3.5-1.4-6.2-1.4-2.6-3.8-4-2.4-1.4-5.6-1.4-3.2 0-5.6 1.4-2.4 1.4-3.8 4-1.4 2.7-1.4 6.2 0 3.5 1.4 6.2 1.4 2.6 3.8 4.1 2.4 1.4 5.6 1.4 3.2 0 5.6-1.4zm42.2-17.2q-1.2-2.2-3.3-3.4-2.1-1.1-5-1.1-3.1 0-5.5 1.4-2.4 1.4-3.8 4-1.4 2.6-1.4 6 0 3.6 1.4 6.2 1.4 2.6 3.9 4 2.5 1.4 5.7 1.4 4.1 0 6.6-2.1 2.6-2.2 3.4-6h-12.1v-5.4h19.1v6.2q-0.7 3.6-3 6.8-2.4 3.1-6 5-3.7 1.9-8.2 1.9-5.1 0-9.2-2.3-4.1-2.3-6.5-6.4-2.3-4.1-2.3-9.3 0-5.2 2.3-9.3 2.4-4.1 6.5-6.4 4.1-2.2 9.1-2.2 6 0 10.4 2.9 4.4 2.8 6 8.1zm21.5 22.6q-4.1-2.3-6.5-6.4-2.5-4.1-2.5-9.3 0-5.2 2.5-9.3 2.4-4.1 6.5-6.4 4.2-2.3 9.1-2.3 5 0 9.1 2.3 4.1 2.3 6.5 6.4 2.4 4.1 2.4 9.3 0 5.2-2.4 9.3-2.4 4.1-6.5 6.4-4.2 2.3-9.1 2.3-4.9 0-9.1-2.3zm14.7-5.4q2.4-1.5 3.8-4.1 1.3-2.7 1.3-6.2 0-3.5-1.3-6.2-1.4-2.6-3.8-4-2.4-1.4-5.6-1.4-3.2 0-5.6 1.4-2.5 1.4-3.8 4-1.4 2.7-1.4 6.2 0 3.5 1.4 6.2 1.3 2.6 3.8 4.1 2.4 1.4 5.6 1.4 3.2 0 5.6-1.4z"/>
</svg>